<svg xmlns="http://www.w3.org/2000/svg" viewBox="0 0 1024 1024">
  <g transform="translate(512 512) scale(0.62) translate(-512 -512)">
    <rect x="176" y="150" width="528" height="600" rx="34" fill="#FFFFFF" opacity=".40"/>
    <rect x="224" y="198" width="528" height="600" rx="34" fill="#FFFFFF"/>
    <rect x="288" y="294" width="400" height="58" rx="8" fill="#0F1417"/>
    <rect x="288" y="400" width="280" height="30" rx="6" fill="#C9D1CE"/>
    <rect x="288" y="466" width="352" height="30" rx="6" fill="#C9D1CE"/>
    <rect x="288" y="586" width="400" height="102" rx="10" fill="#FFFFFF" stroke="#0F1417" stroke-width="17"/>
    <g fill="#0F1417">
      <rect x="328" y="624" width="34" height="27" rx="4"/><rect x="382" y="624" width="34" height="27" rx="4"/>
      <rect x="454" y="624" width="34" height="27" rx="4"/><rect x="508" y="624" width="34" height="27" rx="4"/>
      <rect x="562" y="624" width="34" height="27" rx="4"/>
    </g>
  </g>
</svg>
